<svg width="25" height="25" fill="none" xmlns="http://www.w3.org/2000/svg"><path d="M12.5 0C5.6 0 0 5.74 0 12.82a12.8 12.8 0 008.55 12.16c.62.12.85-.28.85-.62l-.01-2.18c-3.48.78-4.22-1.72-4.22-1.72-.56-1.48-1.39-1.87-1.39-1.87-1.13-.8.1-.78.1-.78 1.25.09 1.9 1.32 1.9 1.32 1.12 1.96 2.93 1.4 3.65 1.07.11-.83.43-1.4.79-1.72-2.78-.32-5.7-1.42-5.7-6.33 0-1.4.49-2.54 1.3-3.44a4.66 4.66 0 01.1-3.4s1.05-.34 3.44 1.32a11.73 11.73 0 016.25 0c2.37-1.66 3.42-1.31 3.42-1.31a4.8 4.8 0 01.13 3.39c.8.9 1.28 2.04 1.28 3.44 0 4.92-2.93 6-5.7 6.32.43.39.84 1.17.84 2.37l-.02 3.51c0 .34.22.74.86.61 5-1.68 8.58-6.49 8.58-12.14C25 5.74 19.4 0 12.5 0z" fill="#fff"/></svg>