<svg width="25" height="25" fill="none" xmlns="http://www.w3.org/2000/svg"><path d="M24.93 7.35a9.14 9.14 0 00-.58-3.03A6.1 6.1 0 0022.9 2.1 6.15 6.15 0 0020.7.66c-.8-.3-1.71-.52-3.04-.58A85.31 85.31 0 0012.5 0C9.1 0 8.68.01 7.35.07a9.14 9.14 0 00-3.03.58c-.84.32-1.6.81-2.22 1.45A6.16 6.16 0 00.66 4.31c-.3.8-.52 1.7-.58 3.04A85.3 85.3 0 000 12.5c0 3.4.01 3.82.07 5.15.06 1.33.28 2.25.58 3.04.32.84.82 1.59 1.45 2.21a6.15 6.15 0 002.21 1.45c.8.3 1.7.52 3.04.58 1.33.06 1.75.07 5.15.07 3.4 0 3.82-.01 5.15-.07a9.13 9.13 0 003.03-.58 6.4 6.4 0 003.66-3.66c.3-.8.52-1.7.58-3.04.06-1.33.08-1.75.08-5.15 0-3.4-.01-3.82-.07-5.15zm-2.25 10.2a6.85 6.85 0 01-.43 2.33 4.15 4.15 0 01-2.37 2.37c-.44.17-1.1.38-2.32.43a87.9 87.9 0 01-5.05.07 87.8 87.8 0 01-5.05-.07 6.85 6.85 0 01-2.32-.43 3.85 3.85 0 01-1.44-.93c-.41-.4-.73-.9-.93-1.44a6.88 6.88 0 01-.43-2.32 87.97 87.97 0 01-.07-5.05c0-3.33.01-3.73.07-5.05.05-1.22.26-1.88.43-2.32.2-.54.52-1.03.94-1.43.4-.42.89-.74 1.43-.94.44-.17 1.1-.37 2.32-.43 1.32-.05 1.72-.07 5.05-.07 3.34 0 3.74.02 5.05.07 1.22.06 1.88.26 2.32.43.54.2 1.04.52 1.44.94.41.4.73.89.93 1.43.17.44.38 1.1.43 2.32.06 1.32.07 1.72.07 5.05 0 3.34-.01 3.73-.07 5.05z" fill="#fff"/><path d="M12.5 6.08a6.42 6.42 0 100 12.85 6.42 6.42 0 000-12.85zm0 10.59a4.17 4.17 0 110-8.33 4.17 4.17 0 010 8.33zM20.68 5.83a1.5 1.5 0 11-3 0 1.5 1.5 0 013 0z" fill="#fff"/></svg>