<svg xmlns="http://www.w3.org/2000/svg" fill="none" viewBox="0 0 654 631">
    <g clip-path="url(#prefix__clip0)">
        <path fill="url(#prefix__paint0_linear)" d="M653.857 379.338a296.757 296.757 0 01-5.152 48.589c-8.076 41.38-26.609 81.691-63.602 115.832-31.426 29.011-76.175 53.572-139.17 70.531l-3.643.969c-46.954 12.308-101.585 18.353-150.305 14.617a815.736 815.736 0 00-7.461-.542c-22.926-1.597-45.892-2.55-68.779-4.651-68.858-6.2-147.78-25.716-180.117-91.906a147.624 147.624 0 01-6.662-15.959c-13.788-38.985-11.335-81.428-9.41-122.312l.287-6.201c1.726-38.458-4.569-77.149-13.891-114.53-14.379-57.564-2.524-117.933 32.863-167.413 35.388-49.48 91.313-83.994 155.091-95.565 107.465-19.5 216.479-6.635 216.479-6.635 143.58 14.44 216.264 152.78 233.99 265.358 5.2 33.017 10.552 71.018 9.482 109.818z" opacity=".3"/>
        <path fill="url(#prefix__paint1_linear)" d="M83.429 34.77l2.508 12.005a99.068 99.068 0 00-15.321 7.565l-8.308-9.146a6.185 6.185 0 00-1.94-1.42 6.375 6.375 0 00-4.76-.252 6.24 6.24 0 00-2.087 1.207l-16.184 14.02a6.073 6.073 0 00-2.115 4.184 6.023 6.023 0 001.524 4.42l8.411 9.3A97.944 97.944 0 0035.7 90.667L23.597 86.79a6.47 6.47 0 00-4.78.356 6.165 6.165 0 00-3.136 3.52l-6.974 20.105a5.907 5.907 0 00.287 4.662 6.093 6.093 0 001.488 1.894c.62.53 1.341.936 2.123 1.194l12.159 3.938a93.712 93.712 0 00-1.087 16.787l-12.653 2.589a6.45 6.45 0 00-4.004 2.674 6.103 6.103 0 00-.94 4.627l4.185 20.927c.15.79.462 1.543.917 2.214a6.12 6.12 0 001.731 1.696c.688.447 1.46.757 2.273.911a6.401 6.401 0 002.46-.016l12.71-2.62a95.85 95.85 0 007.556 15.161l-9.706 8.525a6.262 6.262 0 00-2.136 4.286 6.213 6.213 0 001.545 4.519l14.379 16.098a6.215 6.215 0 001.956 1.471 6.38 6.38 0 004.841.273 6.245 6.245 0 002.118-1.24l9.705-8.526a99.279 99.279 0 0014.38 9.409l-4.115 12.153a6.116 6.116 0 00.319 4.764 6.42 6.42 0 003.675 3.173l20.77 6.813c.794.25 1.632.345 2.464.28a6.47 6.47 0 002.387-.661 6.293 6.293 0 001.94-1.501 6.094 6.094 0 001.197-2.11l4.05-12.068a100.223 100.223 0 0017.406 1l2.604 12.401c.162.8.484 1.561.949 2.24a6.285 6.285 0 001.761 1.716c.697.454 1.48.771 2.303.931a6.59 6.59 0 002.496.004l21.488-4.418a6.462 6.462 0 004.037-2.738 6.118 6.118 0 00.876-4.703l-2.636-12.315a98.797 98.797 0 0015.649-7.712l8.451 9.301a6.274 6.274 0 001.972 1.474 6.444 6.444 0 004.873.273 6.31 6.31 0 002.134-1.244l16.288-14.423a6.255 6.255 0 002.085-4.332 6.22 6.22 0 00-1.63-4.512l-8.403-9.223a97.188 97.188 0 009.585-14.432l11.927 3.876a6.453 6.453 0 004.857-.355 6.234 6.234 0 001.943-1.504 6.034 6.034 0 001.188-2.118l6.686-20.422a6.1 6.1 0 00-.397-4.745 6.414 6.414 0 00-3.717-3.107l-11.806-3.805a95.065 95.065 0 00.838-17.168l12.134-2.488a6.433 6.433 0 002.268-.956 6.217 6.217 0 001.716-1.728 5.96 5.96 0 00.849-4.632l-4.609-20.834a6.148 6.148 0 00-2.731-3.876 6.494 6.494 0 00-4.754-.875l-12.102 2.48a95.436 95.436 0 00-7.924-15.214l9.146-8.022a6.069 6.069 0 002.056-4.244 6.034 6.034 0 00-1.632-4.414l-14.515-15.68a6.231 6.231 0 00-1.954-1.425 6.423 6.423 0 00-4.788-.252 6.287 6.287 0 00-2.101 1.213l-9.202 8.053a98.93 98.93 0 00-14.531-9.192l3.851-11.471a5.92 5.92 0 00-.369-4.629 6.218 6.218 0 00-3.626-3.029l-20.489-6.503a6.42 6.42 0 00-4.76.36 6.12 6.12 0 00-3.109 3.516l-3.89 11.494a100.48 100.48 0 00-17.19-.83l-2.525-11.89a5.926 5.926 0 00-.95-2.162 6.129 6.129 0 00-1.733-1.644 6.312 6.312 0 00-2.25-.874 6.387 6.387 0 00-2.424.03l-21.057 4.302a6.309 6.309 0 00-3.95 2.62 5.966 5.966 0 00-.914 4.557zM47.562 151.415c-8.292-40.489 18.349-79.979 59.48-88.42 41.131-8.44 81.479 17.292 90.266 57.689 8.787 40.644-17.726 80.691-59.296 89.225-41.57 8.533-82.095-17.757-90.45-58.494z"/>
        <path fill="#97A6B7" d="M593.705 421.935l-4.889-285.168c-.102-2.857-1.322-5.569-3.411-7.584-2.089-2.016-4.891-3.184-7.836-3.267L72.301 114.345c-7.693-.179-13.907 5.076-13.796 11.672l5.4 315.147 1.079 62.943c.112 6.596 6.502 11.626 14.187 11.192l504.573-28.863c2.947-.186 5.711-1.453 7.729-3.545 2.018-2.092 3.139-4.852 3.135-7.717l-.903-53.239z"/>
        <path fill="#97A6B7" d="M421.831 552.316A26.97 26.97 0 01410.066 545a25.795 25.795 0 01-6.384-12.061l-14.378-63.384-113.225 5.728-12.781 66.476c-1.789 9.301 6.183 18.493 15.249 21.772l47.706 17.222a63.376 63.376 0 0027.775 3.457l100.044-9.89a6.284 6.284 0 003.759-1.756 5.939 5.939 0 001.76-3.67c.296-2.867 2.293-6.115-.519-6.975l-37.241-9.603z"/>
        <path fill="url(#prefix__paint2_linear)" d="M422.887 548.433a26.786 26.786 0 01-11.709-7.168 25.616 25.616 0 01-6.424-11.899l-14.307-62.586-110.46 5.612-12.781 65.647a18.649 18.649 0 002.198 13.012c2.298 3.947 5.967 6.975 10.351 8.543l47.657 17.005a64.088 64.088 0 0027.751 3.402l99.924-9.859a6.255 6.255 0 003.742-1.728 5.92 5.92 0 001.773-3.634 5.86 5.86 0 00-.995-3.904 6.162 6.162 0 00-3.313-2.414l-33.407-10.029z"/>
        <path fill="#D8DEE8" d="M601.678 421.935l-4.889-285.168c-.1-2.856-1.318-5.568-3.406-7.584-2.088-2.015-4.889-3.184-7.833-3.267L80.274 114.345c-7.685-.179-13.908 5.076-13.788 11.672l5.408 315.147 529.784-19.229z"/>
        <path fill="url(#prefix__paint3_linear)" d="M585.686 175.466l-.44-25.197a10.15 10.15 0 00-3.122-6.991 10.77 10.77 0 00-7.222-2.992l-479.994-9.603c-6.99-.14-12.645 4.65-12.541 10.688l.487 28.251 4.218 246.182c.103 6.139 6.047 10.913 13.172 10.603l478.995-20.926c2.757-.13 5.357-1.286 7.258-3.227a10.246 10.246 0 002.951-7.198l-3.762-219.59z"/>
        <path fill="url(#prefix__paint4_linear)" d="M71.894 441.164l1.079 62.943c.112 6.596 6.51 11.626 14.187 11.192l504.581-28.863c2.947-.187 5.709-1.455 7.727-3.547 2.018-2.092 3.139-4.85 3.137-7.715l-.959-55.091-529.751 21.081z"/>
        <path fill="url(#prefix__paint5_linear)" d="M440.493 215.079v206.407c0 7.014-5.991 12.966-13.444 13.292l-317.93 13.951c-8.443.364-15.281-5.425-15.281-12.905V215.265c0-.463.024-.926.072-1.387.655-5.867 5.544-10.634 11.91-11.866a17.685 17.685 0 012.397-.279c.183 0 .367-.093.551-.101.184-.008.215-.093.319-.093h.352l317.602.713a13.689 13.689 0 018.447 2.846c2.399 1.857 4.069 4.455 4.733 7.362.18.862.271 1.74.272 2.619z"/>
        <path fill="#fff" d="M430.906 415.177c-.038 3.254-1.364 6.369-3.703 8.701-2.338 2.333-5.511 3.704-8.862 3.831L118.56 440.42c-7.932.334-14.378-5.107-14.378-12.16V221.667c0-7.053 6.526-12.765 14.458-12.757l299.653.194a12.78 12.78 0 014.795.867 12.5 12.5 0 014.083 2.59 12.06 12.06 0 012.744 3.913c.64 1.467.974 3.042.983 4.635l.008 194.068z" opacity=".3"/>
        <path fill="url(#prefix__paint6_linear)" d="M440.493 215.079v10.185h-8.946l-321.676.821H93.814v-10.851c0-.463.024-.926.072-1.387.695-5.774 5.64-10.564 11.919-11.889a17.351 17.351 0 013.554-.45h.08l317.602.775h.28a13.294 13.294 0 018.338 2.836c2.355 1.857 3.968 4.453 4.563 7.341.182.862.273 1.739.271 2.619z"/>
        <path fill="#fff" d="M117.514 214.165c0 2.891-2.644 5.247-5.911 5.247-3.267 0-5.927-2.325-5.927-5.247 0-2.922 2.652-5.255 5.927-5.255 3.275 0 5.911 2.356 5.911 5.255zM135.471 214.157c0 2.883-2.62 5.232-5.871 5.232-3.251 0-5.879-2.326-5.879-5.232s2.636-5.232 5.879-5.232c3.243 0 5.871 2.341 5.871 5.232zM153.317 214.149a5.274 5.274 0 01-.509 2.067 5.434 5.434 0 01-1.288 1.718 5.614 5.614 0 01-1.87 1.106 5.724 5.724 0 01-2.164.325c-3.195 0-5.847-2.325-5.847-5.208s2.62-5.224 5.847-5.224c3.227 0 5.831 2.341 5.831 5.216z"/>
        <g fill="#fff" opacity=".9">
            <path d="M216.024 422.935l-100.651 4.023V305.723l100.651-1.744v118.956zM322.266 418.68l-96.657 3.891V303.816l96.657-1.69V418.68zM424.516 414.626l-93.461 3.697V301.971l93.461-1.612v114.267zM424.515 292.926l-309.142 4.907v-58.107l309.142-1.565v54.765z" opacity=".9"/>
        </g>
        <path fill="url(#prefix__paint7_linear)" d="M440.493 413.278v8.208c0 7.014-5.991 12.966-13.444 13.292l-317.93 13.951c-8.443.364-15.281-5.425-15.281-12.905V215.265c0-.463.024-.926.072-1.387.655-5.867 5.544-10.634 11.91-11.866a.1.1 0 010 .054c.16 2.697.44 5.79.911 9.146.128.891.263 1.806.423 2.736.224 1.403.487 2.852.799 4.325a99.206 99.206 0 001.933 7.835 82.513 82.513 0 005.464 14.076c7.357 14.64 20.226 27.762 42.641 31.172 37.8 5.744 77.685 6.302 106.179 24.113a75.699 75.699 0 0110.089 7.494c9.65 8.526 17.414 19.896 22.566 35.397 5.784 17.408 14.675 25.887 25.563 30.228a53.956 53.956 0 008.906 2.604c26.138 5.425 60.767-3.209 92.783 24.43a85.11 85.11 0 013.355 3.038c1.422 1.349 2.82 2.705 4.106 4.054a86.408 86.408 0 018.955 10.564z" opacity=".1"/>
        <path fill="url(#prefix__paint8_linear)" d="M594.665 84.792v218.257c0 7.417-5.999 13.586-13.244 13.773l-308.344 8.107a14.605 14.605 0 01-5.626-.925 14.25 14.25 0 01-4.797-3 13.75 13.75 0 01-3.193-4.588 13.416 13.416 0 01-1.074-5.438V78.18c0-.24-.08-.48-.072-.728a13.748 13.748 0 012.7-7.65c.08-.1.128-.202.224-.31a13.93 13.93 0 015.11-4.01 14.378 14.378 0 016.433-1.307h.375l5.632.155 302.616 6.75c7.261.148 13.26 6.287 13.26 13.712z"/>
        <path fill="#fff" d="M585.078 295.484c0 6.976-5.4 12.82-12.254 12.982l-290.905 7.154a13.911 13.911 0 01-5.325-.878 13.584 13.584 0 01-4.546-2.83 13.09 13.09 0 01-3.044-4.329 12.785 12.785 0 01-1.057-5.139V84.381a12.915 12.915 0 011.096-5.135 13.248 13.248 0 013.063-4.32 13.713 13.713 0 014.551-2.828 14.03 14.03 0 015.326-.893l290.769 6.123c6.854.147 12.31 5.937 12.31 12.943l.016 205.213z" opacity=".3"/>
        <path fill="url(#prefix__paint9_linear)" d="M594.665 84.536v10.34l-9.274-.164-300.827-5.309-16.36-.271-9.841-.178V77.917a4.56 4.56 0 01-.072-.465 13.065 13.065 0 012.7-7.65c.08-.1.128-.202.224-.31a14.606 14.606 0 015.143-3.942 15.054 15.054 0 016.4-1.375h.375l5.656.155 302.464 6.75h.479c7.27.148 12.933 6.038 12.933 13.456z"/>
        <path fill="#fff" d="M280.992 77.212a5.263 5.263 0 01-.438 2.107 5.409 5.409 0 01-1.247 1.776 5.61 5.61 0 01-1.861 1.167 5.744 5.744 0 01-2.181.375 5.954 5.954 0 01-4.053-1.698 5.605 5.605 0 01-1.683-3.96c0-.724.149-1.441.439-2.109a5.417 5.417 0 011.25-1.778 5.607 5.607 0 011.863-1.166 5.743 5.743 0 012.184-.372 5.958 5.958 0 014.045 1.703 5.611 5.611 0 011.682 3.954zM298.399 77.56c0 .721-.148 1.435-.435 2.1a5.432 5.432 0 01-1.239 1.773 5.613 5.613 0 01-1.85 1.169 5.742 5.742 0 01-2.172.384 5.927 5.927 0 01-4.028-1.7 5.583 5.583 0 01-1.667-3.943c0-.72.148-1.435.435-2.1a5.432 5.432 0 011.239-1.772 5.603 5.603 0 011.85-1.17 5.737 5.737 0 012.171-.383 5.933 5.933 0 014.026 1.702 5.59 5.59 0 011.67 3.94zM315.685 77.901a5.232 5.232 0 01-.416 2.1c-.283.665-.7 1.27-1.228 1.775a5.547 5.547 0 01-1.843 1.17 5.69 5.69 0 01-2.169.38 5.902 5.902 0 01-4.006-1.695 5.555 5.555 0 01-1.657-3.923 5.228 5.228 0 01.414-2.103 5.374 5.374 0 011.229-1.778 5.549 5.549 0 011.848-1.17 5.684 5.684 0 012.172-.375c1.511.04 2.946.65 4.001 1.698a5.557 5.557 0 011.655 3.921z"/>
        <g fill="#fff" opacity=".9">
            <path d="M361.409 300.243l-83.077 1.837V174.102l83.077.155v125.986zM578.687 166.785l-300.355-1.015v-61.331l300.355 4.441v57.905zM578.687 231.844l-210.089 1.984v-59.556l210.089.38v57.192zM578.687 295.469l-210.089 4.611v-58.811l210.089-2.279v56.479z" opacity=".9"/>
        </g>
        <path style="mix-blend-mode:multiply" fill="url(#prefix__paint10_linear)" d="M594.665 258.421v44.628c0 7.417-6 13.586-13.245 13.773l-308.343 8.107a14.61 14.61 0 01-5.627-.925 14.27 14.27 0 01-4.797-3 13.778 13.778 0 01-3.193-4.588 13.432 13.432 0 01-1.074-5.438V77.917a4.56 4.56 0 01-.072-.465 13.065 13.065 0 012.7-7.65c.08-.1.128-.202.224-.31a13.942 13.942 0 015.111-4.01 14.374 14.374 0 016.432-1.307h.375l5.632.155c.264 2.225.304 4.58.719 6.976.242 1.208.375 2.435.399 3.666.799.697.6 1.41.799 2.131a104.617 104.617 0 003.675 12.3 81.383 81.383 0 007.237 15.23c7.932 12.889 20.418 23.609 39.893 26.74 43.935 7.076 90.578 6.906 119.823 34.978a77.1 77.1 0 017.317 8.076c6.223 7.953 11.359 17.695 15.122 29.701 4.497 14.331 10.824 23.089 18.492 28.522a45.338 45.338 0 0016.831 7.084c19.843 4.379 44.478.349 69.266 10.184 2.284.907 4.713 1.922 6.989 3.101 3.092 1.542 5.321 3.332 9.315 5.402z" opacity=".1"/>
        <path fill="url(#prefix__paint11_linear)" d="M538.747 140.487v221.358c-.016 3.653-1.491 7.158-4.113 9.78-2.623 2.621-6.191 4.155-9.954 4.279L188.242 387.15c-8.923.295-16.152-5.975-16.152-14.005V136.814c0-8.03 7.333-14.447 16.256-14.339h.423l3.331.039 332.54 4.17a14.52 14.52 0 018.38 2.813c.103.078.271.163.375.24a13.859 13.859 0 013.939 4.784c.926 1.86 1.409 3.9 1.413 5.966z"/>
        <path fill="#fff" d="M530.759 355.668c0 7.099-6.39 13.052-13.835 13.284l-316.987 10.153c-8.38.272-15.066-5.634-15.066-13.176V144.58c0-7.557 6.51-13.61 14.89-13.517l317.314 3.511c7.461.085 13.684 5.906 13.684 13.005v208.089z" opacity=".3"/>
        <path fill="url(#prefix__paint12_linear)" d="M538.747 141.061v11.107l-8.116-.07-334.593-2.62-11.103-.093-12.845-.101v-11.866c0-8.029 7.788-15.044 16.719-14.935l3.307.039 332.54 4.169h.312c2.933.03 5.77 1.018 8.052 2.806.103.078.271.163.375.24a14.964 14.964 0 013.953 5.094 14.536 14.536 0 011.399 6.23z"/>
        <path fill="#fff" d="M197.453 136.496a5.659 5.659 0 01-.547 2.212 5.787 5.787 0 01-1.383 1.837 5.99 5.99 0 01-2.006 1.178 6.125 6.125 0 01-2.319.338c-3.451 0-6.262-2.581-6.262-5.689s2.811-5.596 6.262-5.557c3.451.038 6.255 2.581 6.255 5.681zM216.48 136.69a5.598 5.598 0 01-.536 2.201 5.753 5.753 0 01-1.371 1.83 5.944 5.944 0 01-1.994 1.174 6.055 6.055 0 01-2.305.336 6.186 6.186 0 01-4.309-1.595 5.822 5.822 0 01-1.914-4.07 5.61 5.61 0 01.542-2.203 5.775 5.775 0 011.376-1.83 5.977 5.977 0 011.996-1.173 6.115 6.115 0 012.309-.336 6.179 6.179 0 014.297 1.601 5.821 5.821 0 011.909 4.065zM235.309 136.883a5.582 5.582 0 01-.534 2.191 5.735 5.735 0 01-1.361 1.821 5.95 5.95 0 01-1.98 1.173 6.068 6.068 0 01-2.292.342 6.161 6.161 0 01-4.279-1.6 5.798 5.798 0 01-1.896-4.051 5.575 5.575 0 01.531-2.193 5.73 5.73 0 011.364-1.824 5.935 5.935 0 011.984-1.171 6.066 6.066 0 012.296-.338 6.152 6.152 0 014.275 1.6 5.795 5.795 0 011.892 4.05z"/>
        <g fill="#fff" opacity=".9">
            <path d="M284.723 361.984l-89.467 2.651V164.057l89.467.481v197.446zM521.173 223.799l-227.663 1.224v-60.431l227.663 1.209v57.998zM386.173 292.88l-92.663 1.635v-60.431l92.663-.644v59.44zM386.173 359.008l-92.663 2.736v-60.431l92.663-1.744v59.439zM521.174 355.016l-124.615 3.69V233.363l124.615-.868v122.521z" opacity=".9"/>
        </g>
        <path fill="url(#prefix__paint13_linear)" d="M538.747 336.477v25.368c-.016 3.653-1.491 7.158-4.113 9.78-2.623 2.621-6.191 4.155-9.954 4.279L188.242 387.15c-8.923.295-16.152-5.975-16.152-14.005V136.814c0-8.03 7.333-14.447 16.256-14.339h.423l3.331.039c.088 2.426.256 5.286.583 8.471.056.496.104 1.016.16 1.55.32 2.783.799 5.767 1.334 8.883a119.424 119.424 0 001.829 8.068 94.629 94.629 0 005.161 14.618c7.724 17.051 21.879 32.862 47.705 36.792 11.895 1.806 23.965 3.139 35.899 4.596 2.972.361 5.927.736 8.867 1.124 24.26 3.177 47.434 7.494 66.462 18.066a84.005 84.005 0 0113.06 8.867 78.152 78.152 0 0113.157 13.874 88.613 88.613 0 0110.472 18.671 109.362 109.362 0 012.82 7.549c19.595 58.904 71.846 23.6 122.091 50.937a88.327 88.327 0 018.931 5.534c2.7 1.891 4.921 4.007 8.116 6.363z" opacity=".2"/>
        <path fill="url(#prefix__paint14_linear)" d="M487.04 356.148c-6.119-6.34 10.824-30.165 19.899-40.598 7.924-9.122 16.064-18.493 26.065-17.307 8.787 1.039 17.326 10.022 17.838 18.602 1.374 23.197-55.095 48.317-63.802 39.303z"/>
        <path fill="url(#prefix__paint15_linear)" d="M560.539 600.935c1.15.907 1.358 3.178 1.502 4.651.065.408.065.824 0 1.232-.56 1.705-3.994 1.884-9.323 2.418-8.459.837-10.975 1.481-11.63.264-.655-1.217.878-3.023 1.046-3.224.911-1.117 2.021-1.551 4.178-2.209 3.994-1.271 6.686-1.969 7.501-2.178 5.112-1.318 5.967-1.55 6.726-.954z"/>
        <path fill="#fff" d="M555.507 593.441l-.847 9.347c.24.449 3.108 1.806 5.384.643l2.173-9.192-6.71-.798z"/>
        <path fill="url(#prefix__paint16_linear)" d="M493.471 599.734c1.382 1.48 1.693 4.201.495 5.542-1.198 1.341-2.956.333-7.988.48-5.392.155-6.798 1.388-10.465.411-1.477-.395-4.09-1.364-4.042-2.387 0-.721 1.366-1.093 5.808-2.535 6.31-2.053 6.286-2.17 7.621-2.379 3.371-.519 6.75-1.085 8.571.868z"/>
        <path fill="#fff" d="M490.019 591.201l-2.74 8.696c.208.465 2.956 2.031 5.312 1.038l3.995-8.471-6.567-1.263z"/>
        <path fill="url(#prefix__paint17_linear)" d="M514.049 400.032a794.265 794.265 0 01-7.405 98.154 794.6 794.6 0 01-19.228 95.557l10.385 2.697c8.787-7.913 19.794-20.384 25.122-37.978 3.308-10.936 2.213-16.555 4.306-30.003 3.339-21.414 10.105-32.637 17.103-49.906 6.278-15.501 13.708-38.288 17.694-68.732l-47.977-9.789z"/>
        <path fill="url(#prefix__paint18_linear)" d="M545.193 397.234a4919.686 4919.686 0 015.161 113.988c.99 29.018 1.723 57.67 2.196 85.954l10.617 1.264a117.102 117.102 0 0011.023-27.616c3.771-14.641 2.9-23.337 4.546-38.512 1.853-17.052 4.545-20.726 9.306-42.195 9.674-43.574 14.507-65.361 3.722-78.916-3.546-4.403-14.522-15.44-46.571-13.967z"/>
        <path fill="url(#prefix__paint19_linear)" d="M596.558 303.475a168.493 168.493 0 00-35.148-5.704c-21.129-1.155-31.697-1.737-39.142 3.146-17.295 11.277-3.907 37.304-10.984 101.82-1.007 9.215-1.238 18.493-1.965 27.732-1.214 15.292-1.494 16.121-.392 17.671 6.878 9.719 32.536-4.937 70.153.853 21.048 3.247 30.594 10.719 36.354 5.324 6.726-6.278.958-23.182-3.994-37.73-5.704-16.694-9.227-16.912-12.462-29.491-3.379-13.176-1.334-19.911-.799-40.644a354.848 354.848 0 00-1.621-42.977z"/>
        <path fill="url(#prefix__paint20_linear)" d="M545.409 424.594c9.834-.775 16.208 4.65 24.699.441 11.631-5.766 15.378-23.693 14.635-36.381-1.126-19.283-12.478-24.368-10.521-36.831 1.055-6.743 6.015-15.687 23.829-24.802a346.75 346.75 0 01.056 19.462c-.527 20.733-2.572 27.499.799 40.644 3.195 12.579 6.758 12.796 12.461 29.491 4.961 14.548 10.729 31.452 3.995 37.73-5.76 5.426-15.306-2.077-36.355-5.324-32.408-4.992-55.917 5.192-66.23 1.891 12.454-19.981 23.741-25.647 32.632-26.321z"/>
        <path fill="url(#prefix__paint21_linear)" d="M583.138 304.793c7.022-5.596 21.137.775 24.907 2.433 21.049 9.448 39.941 34.878 35.26 61.796-.703 4.038-3.994 22.903-20.426 32.049-14.858 8.246-34.916 6.123-50.996-5.558l-6.575-5.658-6.478-6.797a52.406 52.406 0 0117.271-9.239c10.696-3.348 18.476 2.659 23.437-1.906 3.419-3.155 3.427-8.72 2.58-12.091-1.701-6.797-7.876-8.704-13.029-13.533-12.118-11.347-14.346-34.792-5.951-41.496z"/>
        <path fill="url(#prefix__paint22_linear)" d="M482.247 392.607l94.109-1.364-25.019 11.719-69.329-4.403.239-5.952z"/>
        <path fill="url(#prefix__paint23_linear)" d="M579.678 393.669a3.975 3.975 0 01-.756 2.332 4.169 4.169 0 01-2 1.489l-30.067 11.44-.144-7.929 29.652-9.758a2.678 2.678 0 011.191-.057c.396.071.77.231 1.091.466.322.235.583.54.762.89.179.35.272.736.271 1.127z"/>
        <path fill="#fff" d="M565.187 388.305c.575-.124-2.812-6.681-5.472-5.921-2.66.759-15.72 8.037-16.871 11.052l-1.182 3.015s5.68.426 9.202-.721c3.523-1.147 9.626-6.448 14.323-7.425z"/>
        <path fill="url(#prefix__paint24_linear)" d="M544.219 345.359l6.631 58.603c.231 2.022-2.684 5.037-4.793 4.937l-97.32-5.798a3.463 3.463 0 01-2.095-.827 3.287 3.287 0 01-1.101-1.917l-12.214-56.579c-.367-2.062 3.451-4.185 5.592-4.131l101.977 2.782a3.472 3.472 0 012.229.86c.611.539 1 1.274 1.094 2.07z"/>
        <path fill="url(#prefix__paint25_linear)" d="M541.99 347.064l6.638 58.61c.053.476-.001.956-.158 1.41a3.294 3.294 0 01-.751 1.216 3.439 3.439 0 01-1.205.801 3.52 3.52 0 01-1.44.239l-98.534-4.526a3.47 3.47 0 01-2.097-.83 3.284 3.284 0 01-1.099-1.921l-10.073-56.859a3.226 3.226 0 01.074-1.452c.135-.473.377-.911.708-1.282.331-.37.743-.665 1.206-.863a3.513 3.513 0 011.471-.278l101.969 2.798c.822.021 1.608.33 2.213.87s.988 1.275 1.078 2.067z"/>
        <path fill="url(#prefix__paint26_linear)" d="M484.125 391.08c8.603-3.542 5.591-10.285 15.728-18.694 13.405-11.092 27.072-6.286 31.857-14.882 1.486-2.674 2.197-6.843-.399-13.586l7.389.201c.823.022 1.61.332 2.215.874a3.268 3.268 0 011.076 2.071l6.638 58.61c.053.476-.002.956-.159 1.41a3.305 3.305 0 01-.75 1.216 3.434 3.434 0 01-1.206.801 3.514 3.514 0 01-1.44.239l-98.534-4.526a3.467 3.467 0 01-2.096-.83 3.284 3.284 0 01-1.099-1.921l-1.39-7.844a37.72 37.72 0 0110.728-3.875c14.443-2.876 21.536 4.813 31.442.736z" opacity=".3"/>
        <path fill="#fff" d="M440.318 396.614a.769.769 0 01-.021-.337.769.769 0 01.384-.544.81.81 0 01.332-.103c2.077-.101 6.909-.14 9.586 1.441 3.466 2.062 7.94 5.813 4.169 7.751l-3.522 1.767a.734.734 0 01-.512.07c-1.254-.264-6.518-1.395-7.101-1.682-.583-.287-2.54-6.077-3.315-8.363zM559.819 275.371a68.657 68.657 0 001.302 14.199c.759 3.783 1.303 4.767 2.005 5.558 1.047 1.193 2.637 2.193 11.607 4.355 4.889 1.171 5.52 1.14 5.592 1.613.527 2.325-12.781 10.075-26.553 8.231-8.427-1.155-16.088-5.821-15.617-8.27.472-2.449 8.915-1.109 11.432-5.596 1.749-3.1-.208-7.503-2.517-11.146 2.229-4.076 10.505-4.875 12.749-8.944z"/>
        <path fill="url(#prefix__paint27_linear)" d="M544.187 277.774a8.408 8.408 0 01-1.516-4.956 8.423 8.423 0 011.692-4.903c1.973-2.434 5.072-2.782 6.934-2.984 5.376-.604 12.166 1.55 14.53 6.379 1.398 2.844-1.598 8.766-2.101 9.828-.543 1.201-1.51 1.612-2.396 2.526-1.246 1.256-3.196 3.263-6.391 6.619a20.772 20.772 0 00-1.222-3.542 18.947 18.947 0 00-2.556-4.162c-2.82-3.317-5.089-2.371-6.974-4.805z"/>
        <path fill="#fff" d="M559.469 287.462s-3.531 5.627-10.577 5.185c-6.302-.395-7.189-14.121-3.195-17.051 1.342-.977 3.994-1.38 6.223-.775 1.294.356 1.733.876 3.858 1.411 1.957.488 2.509.279 3.1.775.743.604 1.278 2.085.048 6.099 1.198-1.185 2.644-1.635 3.666-1.17.348.178.638.447.839.775.879 1.589-.599 3.589-3.962 4.751z"/>
        <path fill="url(#prefix__paint28_linear)" d="M559.173 276.193c-.303.217.623 1.317.695 2.875.136 3.023-3.019 6.658-6.238 6.976-1.91.186-2.397-.93-5.592-1.248a14.708 14.708 0 00-4.585.256c-.991 3.317-.064 6.619 2.22 8.153 2.461 1.651 5.592.651 6.918.233.879-.279 3.699-1.17 5.168-3.682 1.47-2.511 0-4.185 1.79-5.952.887-.884 2.053-1.271 3.195-3a8.06 8.06 0 00.639-1.162c-1.637-1.69-3.786-3.775-4.21-3.449z"/>
        <path fill="#fff" d="M545.737 286.261a7.945 7.945 0 003.714.566c.12 0 .248 0 .256.085.056.217-1.454 1.186-2.844.775-.991-.271-1.757-1.178-1.598-1.411.032-.062.256-.054.472-.015z"/>
        <path fill="url(#prefix__paint29_linear)" d="M207.621 609.67c23.229-5.588 43.863-27.77 46.906-50.464 5.536-41.264-41.402-47.1-56.612-77.862-12.365-25.019-5.591-55.154-18.956-79.832-11.766-21.74-37.848-36.707-63.378-33.854-22.007 2.457-42.337 19.647-47.625 40.954-3.93 15.865-1.526 38.753 5.91 53.557 6.072 12.075 14.148 22.934 25.18 31.173 8.978 6.704 20.337 11.075 27.207 20.151 13.005 17.175 9.075 42.249 15.665 61.455 4.601 13.431 16.775 26.646 30.235 32.134a57.516 57.516 0 0035.468 2.588z"/>
        <path fill="#fff" d="M208.251 603.075a.767.767 0 01-.467-.155.731.731 0 01-.268-.403c-.071-.272-7.061-27.6-21.128-63.114-12.981-32.754-34.805-79.366-65.096-115.437a.754.754 0 01-.151-.535.767.767 0 01.255-.496.816.816 0 011.07.101c30.419 36.226 52.323 83.001 65.344 115.864 14.099 35.59 21.104 62.989 21.176 63.26a.754.754 0 01-.102.551.795.795 0 01-.457.34.692.692 0 01-.176.024z" opacity=".8"/>
        <path fill="url(#prefix__paint30_linear)" d="M167.13 518.554c-46.747-40.365-85.961-22.353-91.066-2.201-5.056 19.958-3.993 123.94 130.208 95.542a5.152 5.152 0 002.927-1.773 4.88 4.88 0 001.107-3.172c-.272-13.021-4.21-54.781-43.176-88.396z"/>
        <g style="mix-blend-mode:soft-light" opacity=".8">
            <path fill="#fff" d="M206.095 607.81a.751.751 0 01-.655-.372c-.072-.116-6.798-11.626-22.072-26.716-14.099-13.951-38.566-33.839-75.088-49.604a.735.735 0 01-.509-.699.717.717 0 01.248-.54.767.767 0 01.578-.189.76.76 0 01.298.087c36.745 15.889 61.381 35.947 75.576 49.976 15.393 15.222 22.191 26.864 22.263 26.98a.758.758 0 01-.296 1 .752.752 0 01-.343.077z" opacity=".8"/>
            <path fill="#fff" d="M166.155 565.259a.647.647 0 01-.215 0 .746.746 0 01-.45-.35.696.696 0 01-.062-.556c.072-.233 6.742-23.446-14.25-38.598a.757.757 0 01-.152-1.031.758.758 0 011.054-.148 37.443 37.443 0 0110.713 11.414 36.253 36.253 0 014.984 14.66 37.968 37.968 0 01-.895 14.113.775.775 0 01-.285.355.808.808 0 01-.442.141zM125.99 560.47a41.633 41.633 0 01-17.694-4.225.795.795 0 01-.596-.402.757.757 0 01.223-.984.814.814 0 011.036.061c23.829 11.13 37.88-4.077 38.016-4.232a.773.773 0 011.057-.055.722.722 0 01.085 1.024 28.838 28.838 0 01-10.52 6.712 32.347 32.347 0 01-11.607 2.101zM165.356 593.743a41.615 41.615 0 01-17.694-4.232.781.781 0 01-.372-.426.753.753 0 01.02-.558.73.73 0 01.43-.374.783.783 0 01.577.033c23.828 11.137 37.88-4.077 38.023-4.232a.773.773 0 011.116-.12.74.74 0 01.257.54.744.744 0 01-.238.549 28.75 28.75 0 01-10.513 6.719 32.59 32.59 0 01-11.606 2.101z" opacity=".8"/>
        </g>
    </g>
    <defs>
        <linearGradient id="prefix__paint0_linear" x1="326.99" x2="326.99" y1="-.002" y2="630.972" gradientUnits="userSpaceOnUse">
            <stop stop-color="#982ED3"/>
            <stop offset="1" stop-color="#5778DD"/>
        </linearGradient>
        <linearGradient id="prefix__paint1_linear" x1="120.067" x2="120.067" y1="23.139" y2="251.457" gradientUnits="userSpaceOnUse">
            <stop stop-color="#DE4444"/>
            <stop offset="1" stop-color="#BF4CA6"/>
        </linearGradient>
        <linearGradient id="prefix__paint2_linear" x1="361.027" x2="363.652" y1="492.663" y2="555.297" gradientUnits="userSpaceOnUse">
            <stop offset=".49" stop-color="#EBEFF2"/>
            <stop offset="1" stop-color="#fff"/>
        </linearGradient>
        <linearGradient id="prefix__paint3_linear" x1="52367.7" x2="374259" y1="106417" y2="106417" gradientUnits="userSpaceOnUse">
            <stop offset=".49" stop-color="#EBEFF2"/>
            <stop offset="1" stop-color="#fff"/>
        </linearGradient>
        <linearGradient id="prefix__paint4_linear" x1="269540" x2="267903" y1="85149.5" y2="53925.8" gradientUnits="userSpaceOnUse">
            <stop offset=".49" stop-color="#EBEFF2"/>
            <stop offset="1" stop-color="#fff"/>
        </linearGradient>
        <linearGradient id="prefix__paint5_linear" x1="263.864" x2="263.864" y1="201.517" y2="448.723" gradientUnits="userSpaceOnUse">
            <stop stop-color="#DE4444"/>
            <stop offset="1" stop-color="#BF4CA6"/>
        </linearGradient>
        <linearGradient id="prefix__paint6_linear" x1="263.852" x2="263.852" y1="201.506" y2="226.083" gradientUnits="userSpaceOnUse">
            <stop stop-color="#DE4444"/>
            <stop offset="1" stop-color="#BF4CA6"/>
        </linearGradient>
        <linearGradient id="prefix__paint7_linear" x1="263.864" x2="263.864" y1="201.99" y2="448.723" gradientUnits="userSpaceOnUse">
            <stop stop-color="#DE4444"/>
            <stop offset="1" stop-color="#BF4CA6"/>
        </linearGradient>
        <linearGradient id="prefix__paint8_linear" x1="423.286" x2="423.286" y1="64.146" y2="324.914" gradientUnits="userSpaceOnUse">
            <stop stop-color="#DE4444"/>
            <stop offset="1" stop-color="#BF4CA6"/>
        </linearGradient>
        <linearGradient id="prefix__paint9_linear" x1="423.275" x2="423.275" y1="64.172" y2="94.872" gradientUnits="userSpaceOnUse">
            <stop stop-color="#DE4444"/>
            <stop offset="1" stop-color="#BF4CA6"/>
        </linearGradient>
        <linearGradient id="prefix__paint10_linear" x1="109014" x2="250647" y1="65524.8" y2="65524.8" gradientUnits="userSpaceOnUse">
            <stop stop-color="#FF9085"/>
            <stop offset="1" stop-color="#FB6FBB"/>
        </linearGradient>
        <linearGradient id="prefix__paint11_linear" x1="662.119" x2="170.79" y1="257.633" y2="268.994" gradientUnits="userSpaceOnUse">
            <stop stop-color="#2751D0"/>
            <stop offset="1" stop-color="#982ED3"/>
        </linearGradient>
        <linearGradient id="prefix__paint12_linear" x1="355.418" x2="355.418" y1="122.482" y2="152.168" gradientUnits="userSpaceOnUse">
            <stop stop-color="#982ED3"/>
            <stop offset="1" stop-color="#5778DD"/>
        </linearGradient>
        <linearGradient id="prefix__paint13_linear" x1="355.418" x2="355.418" y1="122.474" y2="387.16" gradientUnits="userSpaceOnUse">
            <stop stop-color="#982ED3"/>
            <stop offset="1" stop-color="#5778DD"/>
        </linearGradient>
        <linearGradient id="prefix__paint14_linear" x1="517.682" x2="517.682" y1="298.136" y2="358.021" gradientUnits="userSpaceOnUse">
            <stop stop-color="#DE4444"/>
            <stop offset="1" stop-color="#BF4CA6"/>
        </linearGradient>
        <linearGradient id="prefix__paint15_linear" x1="540.305" x2="561.368" y1="605.088" y2="605.739" gradientUnits="userSpaceOnUse">
            <stop stop-color="#444B8C"/>
            <stop offset="1" stop-color="#26264F"/>
        </linearGradient>
        <linearGradient id="prefix__paint16_linear" x1="1769.94" x2="2392.43" y1="5005.67" y2="5186.11" gradientUnits="userSpaceOnUse">
            <stop stop-color="#444B8C"/>
            <stop offset="1" stop-color="#26264F"/>
        </linearGradient>
        <linearGradient id="prefix__paint17_linear" x1="524.721" x2="524.721" y1="400.032" y2="596.44" gradientUnits="userSpaceOnUse">
            <stop stop-color="#982ED3"/>
            <stop offset="1" stop-color="#5778DD"/>
        </linearGradient>
        <linearGradient id="prefix__paint18_linear" x1="615.633" x2="544.97" y1="499.912" y2="500.22" gradientUnits="userSpaceOnUse">
            <stop stop-color="#2751D0"/>
            <stop offset="1" stop-color="#982ED3"/>
        </linearGradient>
        <linearGradient id="prefix__paint19_linear" x1="562.313" x2="562.313" y1="296.957" y2="456.204" gradientUnits="userSpaceOnUse">
            <stop stop-color="#DE4444"/>
            <stop offset="1" stop-color="#BF4CA6"/>
        </linearGradient>
        <linearGradient id="prefix__paint20_linear" x1="564.594" x2="564.594" y1="327.01" y2="456.25" gradientUnits="userSpaceOnUse">
            <stop stop-color="#DE4444"/>
            <stop offset="1" stop-color="#BF4CA6"/>
        </linearGradient>
        <linearGradient id="prefix__paint21_linear" x1="600.616" x2="600.616" y1="302.527" y2="406.032" gradientUnits="userSpaceOnUse">
            <stop stop-color="#DE4444"/>
            <stop offset="1" stop-color="#BF4CA6"/>
        </linearGradient>
        <linearGradient id="prefix__paint22_linear" x1="529.182" x2="529.182" y1="391.243" y2="402.962" gradientUnits="userSpaceOnUse">
            <stop stop-color="#982ED3"/>
            <stop offset="1" stop-color="#5778DD"/>
        </linearGradient>
        <linearGradient id="prefix__paint23_linear" x1="563.195" x2="563.195" y1="391.144" y2="408.93" gradientUnits="userSpaceOnUse">
            <stop stop-color="#982ED3"/>
            <stop offset="1" stop-color="#5778DD"/>
        </linearGradient>
        <linearGradient id="prefix__paint24_linear" x1="283723" x2="285170" y1="34961" y2="31474.1" gradientUnits="userSpaceOnUse">
            <stop stop-color="#444B8C"/>
            <stop offset="1" stop-color="#26264F"/>
        </linearGradient>
        <linearGradient id="prefix__paint25_linear" x1="490.934" x2="490.934" y1="341.328" y2="409.344" gradientUnits="userSpaceOnUse">
            <stop stop-color="#982ED3"/>
            <stop offset="1" stop-color="#5778DD"/>
        </linearGradient>
        <linearGradient id="prefix__paint26_linear" x1="584.549" x2="441.606" y1="377.327" y2="381.218" gradientUnits="userSpaceOnUse">
            <stop stop-color="#2751D0"/>
            <stop offset="1" stop-color="#982ED3"/>
        </linearGradient>
        <linearGradient id="prefix__paint27_linear" x1="566.194" x2="542.669" y1="277.557" y2="277.557" gradientUnits="userSpaceOnUse">
            <stop stop-color="#40447E"/>
            <stop offset="1" stop-color="#3C3B6B"/>
        </linearGradient>
        <linearGradient id="prefix__paint28_linear" x1="13095.5" x2="13612.6" y1="6884.5" y2="6884.5" gradientUnits="userSpaceOnUse">
            <stop stop-color="#40447E"/>
            <stop offset="1" stop-color="#3C3B6B"/>
        </linearGradient>
        <linearGradient id="prefix__paint29_linear" x1="158.733" x2="158.733" y1="367.288" y2="611.316" gradientUnits="userSpaceOnUse">
            <stop stop-color="#DE4444"/>
            <stop offset="1" stop-color="#BF4CA6"/>
        </linearGradient>
        <linearGradient id="prefix__paint30_linear" x1="142.467" x2="142.467" y1="494.387" y2="616.774" gradientUnits="userSpaceOnUse">
            <stop stop-color="#982ED3"/>
            <stop offset="1" stop-color="#5778DD"/>
        </linearGradient>
        <clipPath id="prefix__clip0">
            <path fill="#fff" d="M0 0h654v631H0z"/>
        </clipPath>
    </defs>
</svg>
