<svg version="1.1" id="Слой_1" xmlns="http://www.w3.org/2000/svg" x="0" y="0" viewBox="0 0 868 892" xml:space="preserve"><style>.st0{fill:none;stroke-width:10}.st0,.st1,.st4{stroke:#fff;stroke-miterlimit:10}.st1{stroke-width:6;fill:none}.st4{fill:#fff}</style><switch><g><path class="st0" d="M598.6 168.8a316.7 316.7 0 00-164.1-45.5 316.5 316.5 0 00-172.2 50.5M702.7 614.3a317 317 0 0050.5-172.2c0-66.9-20.6-128.9-55.8-180.1M166.2 269.9a317 317 0 00-50.5 172.2c0 60 16.6 116.2 45.5 164.1M254.3 705.1a317.2 317.2 0 00180.1 55.8c63.5 0 122.6-18.5 172.2-50.5"/><path class="st1" d="M518.2 702.3a272.5 272.5 0 00170-163.5M690.5 355.8a272.3 272.3 0 00-172.3-170M335.2 190.6a272.3 272.3 0 00-158.8 165.2M178.7 538.8a272.4 272.4 0 00156.5 158.7M333.4 308.3l60.2-60.2a199.3 199.3 0 00-156.7 156.7l32.4-32.4M582.8 358.8l45.9 45.9A199.3 199.3 0 00472 248l47.7 47.7M284.1 530.2L237 483a199.3 199.3 0 00156.7 156.7l-45.1-45.1M504.6 607.1L472 639.7A199.3 199.3 0 00628.7 483l-60.3 60.3M393.7 639.7l39.1 39.2 39.2-39.2M628.7 483l39.1-39.1-39.1-39.2M472 248l-39.2-39.1-39.1 39.1M237 404.7l-39.2 39.2L237 483M562.9 576.5l99 100.9M203.8 210.4l98 99.9M297.2 576.5l-98.2 96M666.7 215.2l-99.2 97M36 443.8h79M75 607.8l65-31M832 441.8h-79M793 277.8l-65 31"/><path d="M553.4 98.3a367.2 367.2 0 00-235 .4" fill="none" stroke="#fff" stroke-width="23" stroke-miterlimit="10"/><path d="M318.4 793.3a366.5 366.5 0 00235 .5" fill="none" stroke="#fff" stroke-width="15" stroke-miterlimit="10"/><g><path class="st4" d="M354.6 566.1l.5-75.4 4.2.2a166 166 0 0018.2 45.4c13.2 20.4 29.9 30.6 50 30.6a46 46 0 0034.6-14.1 49 49 0 0013.7-35.6 64.3 64.3 0 00-11.1-35.6 62.6 62.6 0 00-14.9-13.7c-6.4-4.4-16.1-9.9-29.3-16.6a284 284 0 01-26.5-14.8c-6.1-4-11.1-8.1-14.9-12.2a59.5 59.5 0 01-15.7-41.8 72.1 72.1 0 0123.1-53.3 65.2 65.2 0 0145.8-17.9c5.7 0 11 .6 15.9 1.7 4.9 1.2 11.4 3.4 19.5 6.8 6.1 2.4 10.2 4 12.4 4.7 2.2.7 4.1 1 5.8 1 4.3 0 7.1-3.1 8.6-9.3h4.2l1.3 72.5h-4.2a323.7 323.7 0 00-8.5-26.6c-2.4-6.1-5.2-11.8-8.5-17.1-5.9-9.5-12.5-16.5-19.7-21.1s-15.4-6.8-24.8-6.8a40 40 0 00-39.9 27.2 43.6 43.6 0 00-2.8 15.4c0 20.4 13 36.7 39.1 49.2l25.7 12.4c19.8 9.4 34 19.7 42.8 31.1a69.3 69.3 0 0114.9 44.2c0 11.2-2.3 21.9-6.7 32.1a71.5 71.5 0 01-28.4 32.9 84 84 0 01-44.7 11.6c-15.7 0-30.8-3.1-45.2-9.3a258 258 0 00-13.5-5.7c-1.5-.5-3.1-.7-4.9-.7-5.8 0-9.8 2.9-12 8.8h-4.1z"/><path class="st4" d="M434.5 573.5c-15.7 0-31-3.1-45.4-9.4-7.5-3.3-12-5.2-13.5-5.6-1.4-.5-3-.7-4.8-.7-5.7 0-9.4 2.8-11.6 8.4l-.1.3h-5l.6-76.4 5.1.2.1.4c5 19.1 11.1 34.3 18.1 45.3 13.1 20.2 29.8 30.4 49.5 30.4 13.8 0 25.3-4.7 34.3-13.9 9-9.2 13.5-21.1 13.5-35.3a62.5 62.5 0 00-11-35.3 61 61 0 00-14.7-13.6c-6.3-4.3-16.2-9.9-29.2-16.6a302.2 302.2 0 01-26.6-14.8c-6.2-4-11.2-8.2-15-12.3a60.6 60.6 0 01-15.8-42.2c0-10.1 2.1-20 6.1-29.4s9.9-17.6 17.2-24.3c12.9-12 28.4-18 46.1-18 5.7 0 11.1.6 16 1.7 4.9 1.2 11.5 3.5 19.6 6.9 6 2.4 10.2 4 12.4 4.6 2.1.7 4 1 5.7 1 4 0 6.7-2.9 8.1-8.9l.1-.4h5.1l1.3 73.5h-5.1l-.1-.4a326 326 0 00-8.4-26.5 99.6 99.6 0 00-8.4-17 65 65 0 00-19.5-20.9c-7-4.5-15.3-6.8-24.5-6.8a39.6 39.6 0 00-39.4 26.9c-1.9 5-2.8 10.1-2.8 15.2 0 20 13.1 36.4 38.9 48.7l25.7 12.4c19.8 9.4 34.2 19.9 43 31.2 10 12.7 15 27.7 15 44.5a80 80 0 01-6.8 32.3 72.4 72.4 0 01-28.6 33.1 86.2 86.2 0 01-45.2 11.7zm-63.7-16.7c1.9 0 3.6.3 5.1.8 1.5.5 6 2.4 13.5 5.7 14.3 6.2 29.5 9.3 45 9.3 17 0 31.9-3.9 44.4-11.5a70.6 70.6 0 0028.2-32.7 79.3 79.3 0 006.7-31.9c0-16.6-5-31.4-14.8-43.9-8.7-11.2-23-21.6-42.6-30.9l-25.7-12.4c-26.2-12.5-39.4-29.2-39.4-49.6 0-5.2 1-10.4 2.9-15.5s4.5-9.7 7.8-13.5a40.8 40.8 0 0132.6-14.1c9.4 0 17.8 2.3 25 6.9a65.8 65.8 0 0119.8 21.2c3.3 5.2 6.1 11 8.5 17.2 2.3 6.1 5.2 14.9 8.4 26.3h3.3l-1.3-71.5H495c-1.5 6.2-4.6 9.3-9 9.3-1.7 0-3.8-.3-6-1s-6.4-2.2-12.4-4.7c-8.1-3.4-14.6-5.7-19.4-6.8a70.6 70.6 0 00-15.7-1.7c-17.4 0-32.7 6-45.4 17.8a72.9 72.9 0 00-23 52.9c0 16.2 5.2 30.2 15.5 41.5 3.7 4.1 8.7 8.2 14.8 12.2 6.1 4 15 9 26.5 14.8 13.1 6.7 23 12.3 29.3 16.7 6.4 4.4 11.4 9 15 13.8a65 65 0 0111.2 35.9c0 14.4-4.6 26.5-13.8 36a47 47 0 01-35 14.2c-20.1 0-37.1-10.4-50.4-30.8-7-11-13.1-26.2-18.2-45.2l-3.3-.1-.5 74.4h3.3c2.2-6.1 6.4-9.1 12.3-9.1z"/></g><path fill="none" stroke="#fff" stroke-width="20" stroke-miterlimit="10" d="M434.4 292.6v299"/></g></switch></svg>